# xmcd CD database file
#
# Track frame offsets:
#	150
#	32825
#	81855
#	137940
#	175600
#	216155
#	260160
#	288175
#	318188
#
# Disc length: 4311 seconds
#
# Revision: 0
# Processed by: cddbd v1.5.1PL0 Copyright (c) Steve Scherf et al.
# Submitted via: CDex 1.51
#
DISCID=8010d509
DTITLE=Thelonious Monk - Live at the IT Club (Disk 2 of 2)
DYEAR=1900
DGENRE=Jazz
TTITLE0=Straight, No Chaser
TTITLE1=Ted
TTITLE2=I'm Getting Sentimental Over You
TTITLE3=Misterioso
TTITLE4=Ba-lue Bolivar Ba-lues-are
TTITLE5=Bright Mississippi
TTITLE6=Just You, Just Me
TTITLE7=All the Things You Are
TTITLE8=Epistrophy (Theme)
EXTD=
EXTT0=
EXTT1=
EXTT2=
EXTT3=
EXTT4=
EXTT5=
EXTT6=
EXTT7=
EXTT8=
PLAYORDER=
